<?xml version="1.0" encoding="utf-8"?>
<!-- Generator: Adobe Illustrator 19.0.0, SVG Export Plug-In . SVG Version: 6.00 Build 0)  -->
<svg version="1.1" id="图层_1" xmlns="http://www.w3.org/2000/svg" xmlns:xlink="http://www.w3.org/1999/xlink" x="0px" y="0px"
	 viewBox="0 0 100 100" style="enable-background:new 0 0 100 100;" xml:space="preserve">

<path id="XMLID_15_" class="st0" d="M68.8,58.3h10.5c1,0,1.9-0.8,1.9-1.9c0-1-0.9-1.9-1.9-1.9H68.8c-1,0-1.9,0.9-1.9,1.9
	C66.9,57.5,67.8,58.3,68.8,58.3L68.8,58.3z M68.8,43.1L68.8,43.1h10.5c1,0,1.9-0.9,1.9-1.9c0-1-0.9-1.9-1.9-1.9H68.8
	c-1,0-1.9,0.9-1.9,1.9C66.9,42.3,67.8,43.1,68.8,43.1L68.8,43.1z M68.8,73.5L68.8,73.5h10.5c1,0,1.9-0.9,1.9-1.9
	c0-1.1-0.9-1.9-1.9-1.9H68.8c-1,0-1.9,0.9-1.9,1.9C66.9,72.6,67.8,73.5,68.8,73.5L68.8,73.5z M20.6,58.3L20.6,58.3h10.5
	c1,0,1.9-0.8,1.9-1.9c0-1-0.8-1.9-1.9-1.9H20.6c-1.1,0-1.9,0.9-1.9,1.9C18.6,57.5,19.5,58.3,20.6,58.3L20.6,58.3z M68.8,28L68.8,28
	h10.5c1,0,1.9-0.9,1.9-1.9c0-1-0.9-1.9-1.9-1.9H68.8c-1,0-1.9,0.9-1.9,1.9C66.9,27.1,67.8,28,68.8,28L68.8,28z M87.4,8.8L87.4,8.8
	H41.1c-1.8,0-3.2,1.4-3.2,3.1v27.9H12.6c-1.7,0-3.2,1.4-3.2,3.2v45c0,1.8,1.4,3.1,3.2,3.1h74.8c1.8,0,3.2-1.4,3.2-3.1V11.9
	C90.6,10.2,89.2,8.8,87.4,8.8L87.4,8.8z M37.9,84.8L37.9,84.8H15.8V46.2h22.1V84.8L37.9,84.8z M84.2,84.8L84.2,84.8h-40V15.1h40
	V84.8L84.2,84.8z M49.1,73.5L49.1,73.5h10.6c1,0,1.9-0.9,1.9-1.9c0-1.1-0.8-1.9-1.9-1.9H49.1c-1,0-1.9,0.9-1.9,1.9
	C47.3,72.6,48.1,73.5,49.1,73.5L49.1,73.5z M49.1,58.3L49.1,58.3h10.6c1,0,1.9-0.8,1.9-1.9c0-1-0.8-1.9-1.9-1.9H49.1
	c-1,0-1.9,0.9-1.9,1.9C47.3,57.5,48.1,58.3,49.1,58.3L49.1,58.3z M49.1,43.1L49.1,43.1h10.6c1,0,1.9-0.9,1.9-1.9
	c0-1-0.8-1.9-1.9-1.9H49.1c-1,0-1.9,0.9-1.9,1.9C47.3,42.3,48.1,43.1,49.1,43.1L49.1,43.1z M49.1,28L49.1,28h10.6
	c1,0,1.9-0.9,1.9-1.9c0-1-0.8-1.9-1.9-1.9H49.1c-1,0-1.9,0.9-1.9,1.9C47.3,27.1,48.1,28,49.1,28L49.1,28z M20.6,73.5L20.6,73.5h10.5
	c1,0,1.9-0.9,1.9-1.9c0-1.1-0.8-1.9-1.9-1.9H20.6c-1.1,0-1.9,0.9-1.9,1.9C18.6,72.6,19.5,73.5,20.6,73.5L20.6,73.5z"/>
</svg>
