<?xml version="1.0" encoding="utf-8"?>
<!-- Generator: Adobe Illustrator 19.0.0, SVG Export Plug-In . SVG Version: 6.00 Build 0)  -->
<svg version="1.1" id="图层_1" xmlns="http://www.w3.org/2000/svg" xmlns:xlink="http://www.w3.org/1999/xlink" x="0px" y="0px"
	 viewBox="0 0 100 100" style="enable-background:new 0 0 100 100;" xml:space="preserve">
<path id="XMLID_6_" class="st0" d="M22.7,13.5H76c4.2,0,8.1,1.8,10.8,4.5c2.7,2.8,4.5,6.6,4.5,10.8V69c0,4.2-1.7,8-4.5,10.8L86.6,80
	c-2.7,2.7-6.5,4.3-10.6,4.3H22.7c-4.2,0-8-1.7-10.8-4.5v0l-0.1-0.1C9.1,77,7.4,73.2,7.4,69V28.8c0-4.2,1.7-8,4.5-10.8v0l0.1-0.1
	C14.7,15.2,18.6,13.5,22.7,13.5L22.7,13.5z M34.4,47.7L34.4,47.7c-1,0-1.9-0.9-1.9-1.9c0-1.1,0.9-1.9,1.9-1.9h15.6
	c1.1,0,1.9,0.9,1.9,1.9c0,1.1-0.8,1.9-1.9,1.9H34.4L34.4,47.7z M21.5,29.2L21.5,29.2c-0.7-0.8-0.7-2,0-2.7c0.8-0.8,2-0.8,2.7,0l9,9
	c0.8,0.8,0.8,2,0,2.7l-9,9c-0.7,0.7-2,0.7-2.7,0c-0.7-0.8-0.7-2,0-2.7l7.6-7.6L21.5,29.2L21.5,29.2z M76,20L76,20H22.7
	c-2.4,0-4.6,1-6.2,2.6v0c-1.6,1.6-2.6,3.8-2.6,6.2V69c0,2.4,1,4.6,2.6,6.3c1.6,1.6,3.8,2.6,6.2,2.6H76c2.4,0,4.5-1,6.1-2.5l0.1-0.1
	c1.6-1.6,2.6-3.8,2.6-6.3V28.8c0-2.4-1-4.6-2.6-6.2C80.7,21,78.5,20,76,20L76,20z"/>
</svg>
