<?xml version="1.0" encoding="utf-8"?>
<!-- Generator: Adobe Illustrator 19.0.0, SVG Export Plug-In . SVG Version: 6.00 Build 0)  -->
<svg version="1.1" id="图层_1" xmlns="http://www.w3.org/2000/svg" xmlns:xlink="http://www.w3.org/1999/xlink" x="0px" y="0px"
	 viewBox="0 0 100 100" style="enable-background:new 0 0 100 100;" xml:space="preserve">
<path id="XMLID_10_" class="st0" d="M89.7,65.4L72.9,48.7L88,33.5c2.5-2.5,3-6,1.9-9.2C88,19.8,80,13.5,76.4,9.9
	c-3.2-3.2-8.5-3.3-11.8-0.2L49.2,25L32.4,8.2c-1.1-1.2-3-1.2-4.2,0L9.4,27.1c-1.2,1.2-1.2,3.1,0,4.2l16.7,16.8L9.4,64.8
	c-0.6,0.6-0.9,1.3-0.9,2.1c0,6.5,0,12.9,0,19.4c0,1.6,1.3,3.1,3,3.1h19.4c0.8,0,1.6-0.3,2.2-0.9l16.8-16.8l16.7,16.7l0.1,0.1
	c1.1,1.2,3,1.2,4.2,0l18.9-18.9C90.8,68.5,90.8,66.6,89.7,65.4L89.7,65.4z M68.7,14L68.7,14c1-0.9,2.5-0.8,3.5,0.1
	c3.9,3.9,7.8,7.8,11.7,11.7c1,1,0.9,2.6,0,3.6l-5.3,5.3l-3.4-3.3l0,0l0,0L75,31.1l0,0l-8.1-8.1l0,0l0,0v0l-0.1,0l0,0l0,0l-3.3-3.4
	L68.7,14L68.7,14z M71.2,32.4L71.2,32.4C56,47.7,40.7,63,25.3,78.3l-5.8-5.8l45.9-45.9C67.4,28.5,69.3,30.5,71.2,32.4L71.2,32.4z
	 M15.6,29.2L15.6,29.2l14.7-14.7l2.8,2.9l-5.2,5.2c-0.7,0.7-0.7,1.8,0,2.5c0.7,0.7,1.9,0.7,2.5,0l5.2-5.3l4.3,4.3l-2.6,2.6
	c-0.7,0.7-0.7,1.9,0,2.5c0.7,0.7,1.8,0.7,2.5,0l2.7-2.6l2.5,2.5L30.3,43.9L15.6,29.2L15.6,29.2z M60.7,21.9L60.7,21.9l2.2,2.2L17,70
	l-2.2-2.1L60.7,21.9L60.7,21.9z M14.4,83.4L14.4,83.4v-11l10.9,11H14.4L14.4,83.4z M30,83.1L30,83.1l-2.2-2.2
	c15.3-15.3,30.6-30.6,45.9-45.9l2.2,2.2L30,83.1L30,83.1z M68.6,82.2L68.6,82.2L54,67.6l14.7-14.7l2.8,2.8l-2.6,2.6
	c-0.7,0.7-0.7,1.8,0,2.5c0.7,0.7,1.8,0.7,2.5,0l2.6-2.6l4.2,4.2L73,67.7c-0.7,0.7-0.7,1.8,0,2.5c0.7,0.7,1.8,0.7,2.5,0l5.2-5.2
	l2.5,2.6L68.6,82.2L68.6,82.2z"/>
</svg>
