<?xml version="1.0" encoding="utf-8"?>
<!-- Generator: Adobe Illustrator 19.0.0, SVG Export Plug-In . SVG Version: 6.00 Build 0)  -->
<svg version="1.1" id="图层_1" xmlns="http://www.w3.org/2000/svg" xmlns:xlink="http://www.w3.org/1999/xlink" x="0px" y="0px"
	 viewBox="0 0 100 100" style="enable-background:new 0 0 100 100;" xml:space="preserve">
<path id="XMLID_10_" class="st0" d="M78.8,39.4c1.7,0,3.1,1.4,3.1,3c0,1.7-1.4,3.1-3.1,3.1c-1.7,0-3-1.4-3-3.1
	C75.8,40.8,77.2,39.4,78.8,39.4L78.8,39.4z M29.1,26.9L29.1,26.9H18.3v1.7h10.2L29.1,26.9L29.1,26.9z M14.4,28.6L14.4,28.6H12h-0.1
	c-1.8,0-3.3,1.5-3.3,3.3v50v0.1c0,1.8,1.5,3.2,3.3,3.2H90h0.1c1.8,0,3.3-1.5,3.3-3.2V31.9v0c0-1.8-1.5-3.3-3.3-3.3H73.5l-3.4-9.4
	c-0.4-1.4-1.7-2.4-3.1-2.4H35c-1.3,0-2.6,0.8-3,2.2L30.5,23H16.3c-1.1,0-2,0.9-2,2v0V28.6L14.4,28.6z M51,41.6L51,41.6
	c3,0,5.8,1.2,7.7,3.2c2.1,2,3.3,4.8,3.3,7.7c0,6-5,11-11,11c-6,0-10.9-5-10.9-11C40,46.5,45,41.6,51,41.6L51,41.6z M56,47.6L56,47.6
	L56,47.6c1.2,1.3,2.1,3,2.1,5c0,3.9-3.2,7.1-7.1,7.1c-3.9,0-7-3.1-7-7.1c0-3.8,3.1-7,7-7C52.9,45.5,54.7,46.3,56,47.6L56,47.6z
	 M30.7,35.1L30.7,35.1H15.1v43.7h71.8V35.1H71.3v0c-1.3,0-2.6-0.8-3.1-2.1l-3.5-9.7H37.3l-3.5,9.5C33.5,34.1,32.2,35.1,30.7,35.1
	L30.7,35.1z M51,30L51,30c12.4,0,22.5,10.1,22.5,22.5C73.5,64.9,63.3,75,51,75c-12.4,0-22.5-10.1-22.5-22.5C28.5,40.2,38.6,30,51,30
	L51,30z M51,36.5L51,36.5c8.8,0,16,7.2,16,16c0,8.8-7.2,16-16,16c-8.8,0-16-7.2-16-16C35,43.7,42.2,36.5,51,36.5L51,36.5z"/>
</svg>
