<?xml version="1.0" encoding="utf-8"?>
<!-- Generator: Adobe Illustrator 19.0.0, SVG Export Plug-In . SVG Version: 6.00 Build 0)  -->
<svg version="1.1" xmlns="http://www.w3.org/2000/svg" xmlns:xlink="http://www.w3.org/1999/xlink" x="0px" y="0px"
	 viewBox="0 0 150 50" style="enable-background:new 0 0 150 50;" xml:space="preserve">
<path d="M70.4,24L54.5,10.7c-0.1-0.1-0.1-0.1-0.2-0.1h-1.9c-0.2,0-0.3,0.1-0.3,0.3l-0.3,23.9L35.3,10.7c-0.1-0.1-0.2-0.2-0.3-0.2
	c0,0-3.8,0-3.8,0c-0.2,0-0.3,0.2-0.3,0.3c0,0,0,0,0,0l0.7,25.9L17.2,25.6L28.3,13v-1.9l-12.5,13c-0.8,0.8-0.9,2.1-0.1,2.9
	c0.1,0.1,0.1,0.1,0.2,0.2l15.9,13.4c0.1,0.1,0.1,0.1,0.2,0.1h2.2c0.2,0,0.3-0.1,0.3-0.3l0.3-23.9l16.1,24.1c0.1,0.1,0.2,0.2,0.3,0.2
	h4.2c0.2,0,0.3-0.2,0.3-0.3c0,0,0,0,0,0l-0.7-25.9l14,11.2L57.9,38.3v1.9l12.5-13c0.8-0.8,0.9-2.1,0.1-2.9
	C70.5,24.2,70.5,24.1,70.4,24z"/>
<g>
	<path d="M99,31h-1.6l-5.8-8.9c-0.1-0.2-0.3-0.5-0.4-0.7h0c0,0.2,0.1,0.8,0.1,1.5V31H90V19.8h1.7l5.6,8.8c0.2,0.4,0.4,0.6,0.5,0.8h0
		c-0.1-0.3-0.1-0.9-0.1-1.6v-7.9H99V31z"/>
	<path d="M110.5,31.2c-1.6,0-2.9-0.5-3.8-1.6s-1.4-2.4-1.4-4.1c0-1.8,0.5-3.2,1.5-4.3c1-1.1,2.3-1.6,4-1.6c1.5,0,2.8,0.5,3.7,1.6
		c0.9,1,1.4,2.4,1.4,4.1c0,1.8-0.5,3.3-1.5,4.3S112.1,31.2,110.5,31.2z M110.5,20.8c-1.2,0-2.1,0.4-2.9,1.3c-0.7,0.8-1.1,2-1.1,3.3
		c0,1.4,0.4,2.5,1.1,3.3c0.7,0.8,1.6,1.3,2.8,1.3c1.2,0,2.2-0.4,2.9-1.2c0.7-0.8,1.1-1.9,1.1-3.4c0-1.5-0.3-2.6-1-3.4
		C112.7,21.2,111.8,20.8,110.5,20.8z"/>
	<path d="M129.9,19.8L125.8,31h-1.4l-4.1-11.2h1.5l3.1,8.9c0.1,0.3,0.2,0.6,0.2,1h0c0-0.3,0.1-0.6,0.3-1l3.2-8.9H129.9z"/>
	<path d="M143.3,31h-1.5l-1.2-3.1h-4.8l-1.1,3.1h-1.5l4.3-11.2h1.4L143.3,31z M140.2,26.7l-1.8-4.8c-0.1-0.2-0.1-0.4-0.2-0.8h0
		c-0.1,0.3-0.1,0.6-0.2,0.8l-1.7,4.8H140.2z"/>
</g>
</svg>
