<?xml version="1.0" encoding="utf-8"?>
<!-- Generator: Adobe Illustrator 19.0.0, SVG Export Plug-In . SVG Version: 6.00 Build 0)  -->
<svg version="1.1" id="图层_1" xmlns="http://www.w3.org/2000/svg" xmlns:xlink="http://www.w3.org/1999/xlink" x="0px" y="0px"
	 viewBox="0 0 100 100" style="enable-background:new 0 0 100 100;" xml:space="preserve">
<style type="text/css">
	.st0{fill:#231815;}
</style>
<path id="XMLID_1_" class="st0" d="M23.9,82.9c0,1.6-1.3,2.9-2.9,2.9c-1.6,0-2.9-1.3-2.9-2.9c0-5.3,2.2-9.2,5.1-12.1
	c4.2-4,10-5.7,13.4-6c0.7-0.1,1.3-0.3,1.7-0.8c0.3-0.3,0.4-0.6,0.5-0.9c-2.7-2.2-4-5.3-5-7.9c-0.5-1.3-1-2.3-1.2-2.7l-0.1,0l0,0h0v0
	c-1.2-1.1-2.9-3.2-3.8-5.6c-0.9-2.4-1.1-5,0.2-7.4c-0.7-2.2-1.1-4.6-1.1-7c0-3.1,0.5-6.3,1.4-9.3l0.1-0.2c1.4-4.1,3.8-7.1,6.8-9.1
	c3.2-2.2,7.3-3.2,11.8-3.3c1.7,0,4-0.1,6.2,0.4c2.6,0.5,5,1.4,6.5,3.5c3-0.3,5.7,1.4,7.8,3.9c2.6,3,4.4,7.3,4.8,9.8
	c0.3,1.9,0.3,3.9,0,6c-0.2,1.6-0.6,3.4-1.1,5.1c1.6,2.5,1.4,5.2,0.5,7.7c-0.9,2.4-2.6,4.5-3.8,5.6l0,0l0,0v0
	c-0.3,0.3-0.8,1.4-1.3,2.6c-1,2.6-2.2,5.6-4.9,7.8c0.1,0.4,0.3,0.8,0.6,1.1c0.4,0.4,1.1,0.7,1.7,0.8c3.4,0.3,9.2,2.1,13.4,6
	c3,2.9,5.1,6.8,5.1,12.1c0,1.6-1.3,2.9-2.9,2.9c-1.6,0-2.9-1.3-2.9-2.9c0-3.5-1.4-6-3.4-7.9c-3.1-2.9-7.3-4.3-9.9-4.4
	c-2.1-0.2-3.9-1.1-5.3-2.5c-1.6-1.5-3.8-7.3-0.9-9.1c2-1.2,3.1-3.8,3.9-6c0.8-2,1.5-3.6,2.8-4.8v0l0,0c0.7-0.6,1.8-1.9,2.3-3.4
	c0.4-1.1,0.5-2.1-0.2-2.9h0c-0.8-0.8-1-2.4-0.7-3.4c0.6-1.8,1-3.5,1.2-5.2c0.2-1.5,0.2-3,0-4.4c-0.2-1.7-1.6-4.7-3.4-6.9
	c-1-1.2-2.1-2-3-1.8c-1,0.1-2,0-2.9-0.4c-0.8-0.4-1.5-1-2-1.7l-0.2-0.2c-0.4-0.7-1.5-1.1-2.8-1.3c-1.7-0.3-3.6-0.3-5.1-0.2
	c-3.4,0-6.4,0.7-8.7,2.3c-2,1.3-3.6,3.4-4.6,6.2l-0.1,0.2c-0.8,2.3-1.2,4.8-1.2,7.3l0,0c0,2.2,0.4,4.3,1.1,6.1
	c0.3,0.6,0.5,1.3,0.3,1.9c-0.3,1.9-1.8,2-0.9,4.4c0.5,1.4,1.6,2.7,2.3,3.3l0.1,0.1h0c1.3,1.2,1.9,2.8,2.7,4.8c0.9,2.2,2,4.9,4,6.1
	c0.9,0.4,1.5,1.4,1.5,2.6c0,2.5-0.4,4.6-2.3,6.5c-1.4,1.4-3.3,2.3-5.4,2.5c-2.5,0.2-6.8,1.5-9.8,4.4C25.3,76.9,23.9,79.5,23.9,82.9
	L23.9,82.9z"/>
</svg>
