<?xml version="1.0" encoding="utf-8"?>
<!-- Generator: Adobe Illustrator 19.0.0, SVG Export Plug-In . SVG Version: 6.00 Build 0)  -->
<svg version="1.1" id="图层_1" xmlns="http://www.w3.org/2000/svg" xmlns:xlink="http://www.w3.org/1999/xlink" x="0px" y="0px"
	 viewBox="0 0 100 100" style="enable-background:new 0 0 100 100;" xml:space="preserve">
<path id="XMLID_6_" class="st0" d="M18.7,29.4h-4.8c-1,0-1.9-0.9-1.9-1.9c0-1,0.8-1.8,1.9-1.8h4.8v-6.1c0-1.7,1.4-3.1,3.1-3.1h0.1h6
	v-4.8c0-1,0.8-1.8,1.9-1.8c1,0,1.9,0.8,1.9,1.8v4.8H42v-4.8c0-1,0.8-1.8,1.8-1.8c1.1,0,1.9,0.8,1.9,1.8v4.8h10.4v-4.8
	c0-1,0.8-1.8,1.9-1.8c1,0,1.8,0.8,1.8,1.8v4.8h10.4v-4.8c0-1,0.9-1.8,1.9-1.8c1,0,1.8,0.8,1.8,1.8v4.8H80c1.7,0,3.1,1.4,3.1,3.1v0.1
	v6h4.8c1.1,0,1.8,0.8,1.8,1.8c0,1-0.8,1.9-1.8,1.9h-4.8v10.4h4.8c1.1,0,1.8,0.8,1.8,1.8c0,1-0.8,1.9-1.8,1.9h-4.8V54h4.8
	c1.1,0,1.8,0.8,1.8,1.8c0,1-0.8,1.9-1.8,1.9h-4.8V68h4.8c1.1,0,1.8,0.9,1.8,1.9c0,1-0.8,1.8-1.8,1.8h-4.8v6.1c0,1.7-1.4,3.1-3.1,3.1
	h-0.1h-6v4.8c0,1-0.8,1.9-1.8,1.9c-1,0-1.9-0.9-1.9-1.9v-4.8H59.8v4.8c0,1-0.8,1.9-1.8,1.9c-1,0-1.9-0.9-1.9-1.9v-4.8H45.7v4.8
	c0,1-0.8,1.9-1.9,1.9c-1,0-1.8-0.9-1.8-1.9v-4.8H31.6v4.8c0,1-0.9,1.9-1.9,1.9c-1.1,0-1.9-0.9-1.9-1.9v-4.8h-6.1
	c-1.7,0-3.1-1.4-3.1-3.1v-0.1v-6h-4.8c-1,0-1.9-0.8-1.9-1.8c0-1,0.8-1.9,1.9-1.9h4.8V57.6h-4.8c-1,0-1.9-0.8-1.9-1.9
	c0-1,0.8-1.8,1.9-1.8h4.8V43.5h-4.8c-1,0-1.9-0.8-1.9-1.9c0-1,0.8-1.8,1.9-1.8h4.8V29.4L18.7,29.4z M76.9,22.7L76.9,22.7H24.8v52.1
	h52.1V22.7L76.9,22.7z M31.7,27.7L31.7,27.7L31.7,27.7h38.4c1,0,1.9,0.8,1.9,1.9v0v38.3c0,1-0.8,1.9-1.9,1.9h0H31.7
	c-1,0-1.9-0.9-1.9-1.9v0V29.5C29.8,28.5,30.7,27.7,31.7,27.7L31.7,27.7z M68.3,31.4L68.3,31.4H33.5v34.7h34.7V31.4L68.3,31.4z"/>
</svg>
